<mxfile host="65bd71144e">
    <diagram id="nihs7_ESvpemVGnhVxjv" name="Page-1">
        <mxGraphModel dx="889" dy="1431" grid="1" gridSize="10" guides="1" tooltips="1" connect="1" arrows="1" fold="1" page="1" pageScale="1" pageWidth="1100" pageHeight="850" math="0" shadow="0">
            <root>
                <mxCell id="0"/>
                <mxCell id="1" parent="0"/>
                <mxCell id="77" value="" style="group" parent="1" vertex="1" connectable="0">
                    <mxGeometry x="100" y="200" width="500" height="520" as="geometry"/>
                </mxCell>
                <mxCell id="75" value="" style="group" parent="77" vertex="1" connectable="0">
                    <mxGeometry width="500" height="240" as="geometry"/>
                </mxCell>
                <mxCell id="21" value="" style="shape=curlyBracket;whiteSpace=wrap;html=1;rounded=1;flipH=1;rotation=90;strokeWidth=1.5;size=0.5;" parent="75" vertex="1">
                    <mxGeometry x="55" y="55" width="15" height="50" as="geometry"/>
                </mxCell>
                <mxCell id="22" value="" style="shape=curlyBracket;whiteSpace=wrap;html=1;rounded=1;flipH=1;rotation=90;strokeWidth=1.5;" parent="75" vertex="1">
                    <mxGeometry x="175" width="15" height="160" as="geometry"/>
                </mxCell>
                <mxCell id="23" value="" style="shape=curlyBracket;whiteSpace=wrap;html=1;rounded=1;flipH=1;rotation=90;strokeWidth=1.5;" parent="75" vertex="1">
                    <mxGeometry x="370" y="-2" width="15" height="165" as="geometry"/>
                </mxCell>
                <mxCell id="24" value="&lt;span style=&quot;color: rgb(77 , 81 , 86) ; font-family: &amp;#34;roboto&amp;#34; , &amp;#34;arial&amp;#34; , sans-serif ; font-size: 17px ; background-color: rgb(255 , 255 , 255)&quot;&gt;Primitive Data Types:&lt;/span&gt;" style="text;html=1;strokeColor=none;fillColor=none;align=left;verticalAlign=middle;whiteSpace=wrap;rounded=0;fontSize=17;fontStyle=1" parent="75" vertex="1">
                    <mxGeometry width="190" height="30" as="geometry"/>
                </mxCell>
                <mxCell id="26" value="CAT ID" style="text;html=1;strokeColor=none;fillColor=none;align=center;verticalAlign=middle;whiteSpace=wrap;rounded=0;fontSize=17;" parent="75" vertex="1">
                    <mxGeometry x="30" y="90" width="60" height="30" as="geometry"/>
                </mxCell>
                <mxCell id="27" value="&lt;font style=&quot;font-size: 12px&quot;&gt;1 Byte&lt;/font&gt;" style="text;html=1;strokeColor=none;fillColor=none;align=center;verticalAlign=top;whiteSpace=wrap;rounded=0;fontSize=17;spacing=0;" parent="75" vertex="1">
                    <mxGeometry x="30" y="110" width="60" height="30" as="geometry"/>
                </mxCell>
                <mxCell id="29" value="Type Specs" style="text;html=1;strokeColor=none;fillColor=none;align=center;verticalAlign=middle;whiteSpace=wrap;rounded=0;fontSize=17;" parent="75" vertex="1">
                    <mxGeometry x="100" y="90" width="170" height="30" as="geometry"/>
                </mxCell>
                <mxCell id="30" value="Raw Data" style="text;html=1;strokeColor=none;fillColor=none;align=center;verticalAlign=middle;whiteSpace=wrap;rounded=0;fontSize=17;" parent="75" vertex="1">
                    <mxGeometry x="295" y="90" width="165" height="30" as="geometry"/>
                </mxCell>
                <mxCell id="32" value="&lt;font style=&quot;font-size: 12px&quot;&gt;x Bytes (CAT-Dependent)&lt;/font&gt;" style="text;html=1;strokeColor=none;fillColor=none;align=center;verticalAlign=top;whiteSpace=wrap;rounded=0;fontSize=17;spacing=0;" parent="75" vertex="1">
                    <mxGeometry x="100" y="110" width="170" height="30" as="geometry"/>
                </mxCell>
                <mxCell id="34" value="&lt;font style=&quot;font-size: 12px&quot;&gt;y Bytes (Type-Dependent)&lt;/font&gt;" style="text;html=1;strokeColor=none;fillColor=none;align=center;verticalAlign=top;whiteSpace=wrap;rounded=0;fontSize=17;spacing=0;" parent="75" vertex="1">
                    <mxGeometry x="295" y="110" width="165" height="30" as="geometry"/>
                </mxCell>
                <mxCell id="35" value="" style="shape=curlyBracket;whiteSpace=wrap;html=1;rounded=1;flipH=1;rotation=90;strokeWidth=1.5;" parent="75" vertex="1">
                    <mxGeometry x="140" y="30" width="20" height="240" as="geometry"/>
                </mxCell>
                <mxCell id="36" value="Regular RLP Bytes" style="text;html=1;strokeColor=none;fillColor=none;align=center;verticalAlign=middle;whiteSpace=wrap;rounded=0;fontSize=17;" parent="75" vertex="1">
                    <mxGeometry x="30" y="160" width="240" height="30" as="geometry"/>
                </mxCell>
                <mxCell id="37" value="" style="shape=curlyBracket;whiteSpace=wrap;html=1;rounded=1;flipH=1;rotation=90;strokeWidth=1.5;" parent="75" vertex="1">
                    <mxGeometry x="370" y="65" width="20" height="170" as="geometry"/>
                </mxCell>
                <mxCell id="38" value="Regular RLP Bytes" style="text;html=1;strokeColor=none;fillColor=none;align=center;verticalAlign=middle;whiteSpace=wrap;rounded=0;fontSize=17;" parent="75" vertex="1">
                    <mxGeometry x="290" y="160" width="170" height="30" as="geometry"/>
                </mxCell>
                <mxCell id="39" value="" style="shape=curlyBracket;whiteSpace=wrap;html=1;rounded=1;flipH=1;rotation=90;strokeWidth=1.5;" parent="75" vertex="1">
                    <mxGeometry x="240" y="-50" width="20" height="500" as="geometry"/>
                </mxCell>
                <mxCell id="40" value="Regular RLP List" style="text;html=1;strokeColor=none;fillColor=none;align=center;verticalAlign=middle;whiteSpace=wrap;rounded=0;fontSize=17;" parent="75" vertex="1">
                    <mxGeometry y="210" width="500" height="30" as="geometry"/>
                </mxCell>
                <mxCell id="41" value="" style="group" parent="75" vertex="1" connectable="0">
                    <mxGeometry y="40" width="500" height="30" as="geometry"/>
                </mxCell>
                <mxCell id="2" value="[" style="text;html=1;strokeColor=none;fillColor=none;align=center;verticalAlign=middle;whiteSpace=wrap;rounded=0;fontSize=25;" parent="41" vertex="1">
                    <mxGeometry width="30" height="30" as="geometry"/>
                </mxCell>
                <mxCell id="3" value="]" style="text;html=1;strokeColor=none;fillColor=none;align=center;verticalAlign=middle;whiteSpace=wrap;rounded=0;fontSize=25;" parent="41" vertex="1">
                    <mxGeometry x="470" width="30" height="30" as="geometry"/>
                </mxCell>
                <mxCell id="4" value=")" style="text;html=1;strokeColor=none;fillColor=none;align=center;verticalAlign=middle;whiteSpace=wrap;rounded=0;fontSize=25;" parent="41" vertex="1">
                    <mxGeometry x="250" width="30" height="30" as="geometry"/>
                </mxCell>
                <mxCell id="5" value="(" style="text;html=1;strokeColor=none;fillColor=none;align=center;verticalAlign=middle;whiteSpace=wrap;rounded=0;fontSize=25;" parent="41" vertex="1">
                    <mxGeometry x="20" width="30" height="30" as="geometry"/>
                </mxCell>
                <mxCell id="6" value=")" style="text;html=1;strokeColor=none;fillColor=none;align=center;verticalAlign=middle;whiteSpace=wrap;rounded=0;fontSize=25;" parent="41" vertex="1">
                    <mxGeometry x="450" width="30" height="30" as="geometry"/>
                </mxCell>
                <mxCell id="7" value="(" style="text;html=1;strokeColor=none;fillColor=none;align=center;verticalAlign=middle;whiteSpace=wrap;rounded=0;fontSize=25;" parent="41" vertex="1">
                    <mxGeometry x="280" width="30" height="30" as="geometry"/>
                </mxCell>
                <mxCell id="8" value="," style="text;html=1;strokeColor=none;fillColor=none;align=center;verticalAlign=middle;whiteSpace=wrap;rounded=0;fontSize=25;" parent="41" vertex="1">
                    <mxGeometry x="260" width="30" height="30" as="geometry"/>
                </mxCell>
                <mxCell id="9" value="0x00, 0x00, ..., 0x00" style="text;html=1;strokeColor=none;fillColor=none;align=left;verticalAlign=middle;whiteSpace=wrap;rounded=0;fontSize=17;fontFamily=Courier New;" parent="41" vertex="1">
                    <mxGeometry x="40" width="220" height="30" as="geometry"/>
                </mxCell>
                <mxCell id="10" value="0x00, ..., 0x00" style="text;html=1;strokeColor=none;fillColor=none;align=left;verticalAlign=middle;whiteSpace=wrap;rounded=0;fontSize=17;fontFamily=Courier New;" parent="41" vertex="1">
                    <mxGeometry x="300" width="160" height="30" as="geometry"/>
                </mxCell>
                <mxCell id="76" value="" style="group" parent="77" vertex="1" connectable="0">
                    <mxGeometry y="280" width="475" height="240" as="geometry"/>
                </mxCell>
                <mxCell id="25" value="&lt;font color=&quot;#4d5156&quot; face=&quot;roboto, arial, sans-serif&quot;&gt;Composite Data Types:&lt;/font&gt;" style="text;html=1;strokeColor=none;fillColor=none;align=left;verticalAlign=middle;whiteSpace=wrap;rounded=0;fontSize=17;fontStyle=1" parent="76" vertex="1">
                    <mxGeometry width="220" height="30" as="geometry"/>
                </mxCell>
                <mxCell id="44" value="" style="group" parent="76" vertex="1" connectable="0">
                    <mxGeometry y="40" width="465" height="30" as="geometry"/>
                </mxCell>
                <mxCell id="12" value="[" style="text;html=1;strokeColor=none;fillColor=none;align=center;verticalAlign=middle;whiteSpace=wrap;rounded=0;fontSize=25;" parent="44" vertex="1">
                    <mxGeometry width="30" height="30" as="geometry"/>
                </mxCell>
                <mxCell id="13" value="]" style="text;html=1;strokeColor=none;fillColor=none;align=center;verticalAlign=middle;whiteSpace=wrap;rounded=0;fontSize=25;" parent="44" vertex="1">
                    <mxGeometry x="435" width="30" height="30" as="geometry"/>
                </mxCell>
                <mxCell id="14" value=")" style="text;html=1;strokeColor=none;fillColor=none;align=center;verticalAlign=middle;whiteSpace=wrap;rounded=0;fontSize=25;" parent="44" vertex="1">
                    <mxGeometry x="250" width="30" height="30" as="geometry"/>
                </mxCell>
                <mxCell id="15" value="(" style="text;html=1;strokeColor=none;fillColor=none;align=center;verticalAlign=middle;whiteSpace=wrap;rounded=0;fontSize=25;" parent="44" vertex="1">
                    <mxGeometry x="20" width="30" height="30" as="geometry"/>
                </mxCell>
                <mxCell id="18" value="," style="text;html=1;strokeColor=none;fillColor=none;align=center;verticalAlign=middle;whiteSpace=wrap;rounded=0;fontSize=25;" parent="44" vertex="1">
                    <mxGeometry x="260" width="30" height="30" as="geometry"/>
                </mxCell>
                <mxCell id="19" value="0x00, 0x00, ..., 0x00" style="text;html=1;strokeColor=none;fillColor=none;align=left;verticalAlign=middle;whiteSpace=wrap;rounded=0;fontSize=17;fontFamily=Courier New;" parent="44" vertex="1">
                    <mxGeometry x="40" width="220" height="30" as="geometry"/>
                </mxCell>
                <mxCell id="20" value="&lt;font style=&quot;font-size: 25px&quot;&gt;, . . . ,&lt;/font&gt;" style="text;html=1;strokeColor=none;fillColor=none;align=left;verticalAlign=middle;whiteSpace=wrap;rounded=0;fontSize=20;fontFamily=Helvetica;" parent="44" vertex="1">
                    <mxGeometry x="330" width="70" height="30" as="geometry"/>
                </mxCell>
                <mxCell id="42" value="[...]" style="text;html=1;strokeColor=none;fillColor=none;align=center;verticalAlign=middle;whiteSpace=wrap;rounded=0;fontSize=25;" parent="44" vertex="1">
                    <mxGeometry x="395" width="40" height="30" as="geometry"/>
                </mxCell>
                <mxCell id="43" value="[...]" style="text;html=1;strokeColor=none;fillColor=none;align=center;verticalAlign=middle;whiteSpace=wrap;rounded=0;fontSize=25;" parent="44" vertex="1">
                    <mxGeometry x="290" width="40" height="30" as="geometry"/>
                </mxCell>
                <mxCell id="60" value="" style="shape=curlyBracket;whiteSpace=wrap;html=1;rounded=1;flipH=1;rotation=90;strokeWidth=1.5;size=0.5;" parent="76" vertex="1">
                    <mxGeometry x="55" y="55" width="15" height="50" as="geometry"/>
                </mxCell>
                <mxCell id="61" value="" style="shape=curlyBracket;whiteSpace=wrap;html=1;rounded=1;flipH=1;rotation=90;strokeWidth=1.5;" parent="76" vertex="1">
                    <mxGeometry x="175" width="15" height="160" as="geometry"/>
                </mxCell>
                <mxCell id="62" value="" style="shape=curlyBracket;whiteSpace=wrap;html=1;rounded=1;flipH=1;rotation=90;strokeWidth=1.5;" parent="76" vertex="1">
                    <mxGeometry x="355" y="6" width="15" height="150" as="geometry"/>
                </mxCell>
                <mxCell id="63" value="CAT ID" style="text;html=1;strokeColor=none;fillColor=none;align=center;verticalAlign=middle;whiteSpace=wrap;rounded=0;fontSize=17;" parent="76" vertex="1">
                    <mxGeometry x="30" y="90" width="60" height="30" as="geometry"/>
                </mxCell>
                <mxCell id="64" value="&lt;font style=&quot;font-size: 12px&quot;&gt;1 Byte&lt;/font&gt;" style="text;html=1;strokeColor=none;fillColor=none;align=center;verticalAlign=top;whiteSpace=wrap;rounded=0;fontSize=17;spacing=0;" parent="76" vertex="1">
                    <mxGeometry x="30" y="110" width="60" height="30" as="geometry"/>
                </mxCell>
                <mxCell id="65" value="Type Specs" style="text;html=1;strokeColor=none;fillColor=none;align=center;verticalAlign=middle;whiteSpace=wrap;rounded=0;fontSize=17;" parent="76" vertex="1">
                    <mxGeometry x="100" y="90" width="170" height="30" as="geometry"/>
                </mxCell>
                <mxCell id="66" value="Primitive(or Composite) Data" style="text;html=1;strokeColor=none;fillColor=none;align=center;verticalAlign=middle;whiteSpace=wrap;rounded=0;fontSize=17;" parent="76" vertex="1">
                    <mxGeometry x="252" y="90" width="225" height="30" as="geometry"/>
                </mxCell>
                <mxCell id="67" value="&lt;font style=&quot;font-size: 12px&quot;&gt;x Bytes (CAT-Dependent)&lt;/font&gt;" style="text;html=1;strokeColor=none;fillColor=none;align=center;verticalAlign=top;whiteSpace=wrap;rounded=0;fontSize=17;spacing=0;" parent="76" vertex="1">
                    <mxGeometry x="100" y="110" width="170" height="30" as="geometry"/>
                </mxCell>
                <mxCell id="68" value="&lt;font style=&quot;font-size: 12px&quot;&gt;Type-Dependent&lt;/font&gt;" style="text;html=1;strokeColor=none;fillColor=none;align=center;verticalAlign=top;whiteSpace=wrap;rounded=0;fontSize=17;spacing=0;" parent="76" vertex="1">
                    <mxGeometry x="285" y="110" width="160" height="30" as="geometry"/>
                </mxCell>
                <mxCell id="69" value="" style="shape=curlyBracket;whiteSpace=wrap;html=1;rounded=1;flipH=1;rotation=90;strokeWidth=1.5;" parent="76" vertex="1">
                    <mxGeometry x="140" y="30" width="20" height="240" as="geometry"/>
                </mxCell>
                <mxCell id="70" value="Regular RLP Bytes" style="text;html=1;strokeColor=none;fillColor=none;align=center;verticalAlign=middle;whiteSpace=wrap;rounded=0;fontSize=17;" parent="76" vertex="1">
                    <mxGeometry x="30" y="160" width="240" height="30" as="geometry"/>
                </mxCell>
                <mxCell id="71" value="" style="shape=curlyBracket;whiteSpace=wrap;html=1;rounded=1;flipH=1;rotation=90;strokeWidth=1.5;" parent="76" vertex="1">
                    <mxGeometry x="360" y="70" width="20" height="160" as="geometry"/>
                </mxCell>
                <mxCell id="72" value="Regular RLP Lists" style="text;html=1;strokeColor=none;fillColor=none;align=center;verticalAlign=middle;whiteSpace=wrap;rounded=0;fontSize=17;" parent="76" vertex="1">
                    <mxGeometry x="285" y="160" width="160" height="30" as="geometry"/>
                </mxCell>
                <mxCell id="73" value="" style="shape=curlyBracket;whiteSpace=wrap;html=1;rounded=1;flipH=1;rotation=90;strokeWidth=1.5;" parent="76" vertex="1">
                    <mxGeometry x="230" y="-35" width="20" height="470" as="geometry"/>
                </mxCell>
                <mxCell id="74" value="Regular RLP List" style="text;html=1;strokeColor=none;fillColor=none;align=center;verticalAlign=middle;whiteSpace=wrap;rounded=0;fontSize=17;" parent="76" vertex="1">
                    <mxGeometry y="210" width="470" height="30" as="geometry"/>
                </mxCell>
            </root>
        </mxGraphModel>
    </diagram>
</mxfile>